#!OML:ASF H:\ManfredETheater\Project 1\Capture day 1\Session 1\subject.ASF
:FULLY-SPECIFIED
:DEGREES
110
root 5.65331 11.9471 -20.6794 2.58658 -82.2753 21.5421
lowerback 60.4019 3.87837 3.55191
upperback 11.1777 4.3807 1.51271
thorax -8.78068 1.03033 -1.6777
lowerneck -22.4225 28.7493 -6.01819
upperneck -0.316711 53.1184 -5.22972
head 35.1427 -52.5793 142.246
rclavicle -6.99722e-014 8.05078e-015
rhumerus 10.683 -6.07545 -50.5782
rradius 73.4892
rwrist -10.3762
rhand -32.9574 3.5534
rfingers 7.12502
rthumb -6.17311 -26.3367
lclavicle -6.99722e-014 8.05078e-015
lhumerus -37.7032 10.3984 77.0561
lradius 123.751
lwrist 0.642831
lhand -27.1682 0.641546
lfingers 7.12502
lthumb -0.582552 30.6205
rfemur -90.8083 -18.3465 13.6274
rtibia 112.003
rfoot -34.5302 -3.34132
rtoes -38.812
lfemur -60.0678 28.7102 16.3684
ltibia 70.9415
lfoot -12.4647 -11.7378
ltoes -35.3731
111
root 5.66792 11.8559 -20.4735 7.31155 -82.551 16.6011
lowerback 60.6859 4.0686 3.60122
upperback 11.2044 4.61868 1.73268
thorax -8.76778 1.10047 -1.55326
lowerneck -22.2884 29.0141 -5.85547
upperneck -0.258764 53.3078 -5.15906
head 35.0729 -52.3982 142.301
rclavicle -1.11319e-014 3.37934e-015
rhumerus 10.4003 -6.52136 -50.6563
rradius 73.6533
rwrist -11.3117
rhand -33.0987 3.34858
rfingers 7.12502
rthumb -6.30948 -26.5375
lclavicle -1.11319e-014 3.37934e-015
lhumerus -37.7757 10.5536 77.0447
lradius 123.987
lwrist 1.21367
lhand -27.3582 0.578261
lfingers 7.12502
lthumb -0.766026 30.5566
rfemur -90.6889 -18.5431 13.0404
rtibia 112.291
rfoot -34.5877 -3.1151
rtoes -39.4889
lfemur -61.2398 30.4432 15.8193
ltibia 73.1474
lfoot -14.4858 -12.2033
ltoes -34.3596
112
root 5.68327 11.7678 -20.2629 12.263 -82.7118 11.4289
lowerback 60.9022 4.21986 3.68088
upperback 11.2376 4.8321 1.94405
thorax -8.74429 1.16258 -1.44115
lowerneck -22.117 29.2818 -5.6385
upperneck -0.206308 53.4158 -5.06601
head 35.0312 -52.3035 142.323
rclavicle -3.49861e-014 -4.2043e-014
rhumerus 9.99227 -6.94011 -50.7211
rradius 73.8223
rwrist -12.2531
rhand -33.2207 3.13749
rfingers 7.12502
rthumb -6.42727 -26.745
lclavicle -3.49861e-014 -4.2043e-014
lhumerus -37.8242 10.6396 77.0219
lradius 124.202
lwrist 1.82872
lhand -27.7027 0.704978
lfingers 7.12502
lthumb -1.09877 30.6819
rfemur -90.5089 -18.8183 12.429
rtibia 112.512
rfoot -34.6157 -2.8678
rtoes -40.0734
lfemur -62.5386 32.058 15.2371
ltibia 75.3584
lfoot -16.3464 -12.7022
ltoes -33.1299
113
root 5.69889 11.6819 -20.0474 17.1604 -82.7625 6.31326
lowerback 61.0507 4.33064 3.77963
upperback 11.2779 5.01206 2.14072
thorax -8.70978 1.21351 -1.3395
lowerneck -21.9204 29.5564 -5.3781
upperneck -0.160079 53.4745 -4.95899
head 35.0021 -52.2592 142.333
rclavicle 1.43125e-014 1.78906e-014
rhumerus 9.4759 -7.33337 -50.7791
rradius 73.9904
rwrist -13.169
rhand -33.2967 2.9391
rfingers 7.12502
rthumb -6.50066 -26.9411
lclavicle 1.43125e-014 1.78906e-014
lhumerus -37.854 10.6582 76.9808
lradius 124.413
lwrist 2.48567
lhand -28.1569 0.955338
lfingers 7.12502
lthumb -1.53742 30.9295
rfemur -90.2847 -19.1869 11.7879
rtibia 112.671
rfoot -34.6082 -2.59255
rtoes -40.5911
lfemur -63.9256 33.5319 14.6527
ltibia 77.5545
lfoot -18.0181 -13.2897
ltoes -31.8734
114
root 5.71445 11.5992 -19.8275 21.7706 -82.7199 1.48556
lowerback 61.1442 4.40682 3.88834
upperback 11.3234 5.15912 2.31903
thorax -8.66681 1.2536 -1.24866
lowerneck -21.7033 29.8391 -5.07506
upperneck -0.119266 53.4897 -4.83828
head 34.9789 -52.2512 142.333
rclavicle 4.77083e-015 3.67752e-015
rhumerus 8.8563 -7.70821 -50.8307
rradius 74.1564
rwrist -14.0356
rhand -33.3135 2.76225
rfingers 7.12502
rthumb -6.51687 -27.1175
lclavicle 4.77083e-015 3.67752e-015
lhumerus -37.8673 10.6254 76.9001
lradius 124.617
lwrist 3.07761
lhand -28.631 1.23193
lfingers 7.12502
lthumb -1.99531 31.2024
rfemur -90.0073 -19.6451 11.1146
rtibia 112.762
rfoot -34.5641 -2.28126
rtoes -41.0456
lfemur -65.3463 34.8326 14.1001
ltibia 79.7216
lfoot -19.5031 -13.9644
ltoes -30.7151
115
root 5.7298 11.5208 -19.604 25.9468 -82.622 -2.89315
lowerback 61.1695 4.47135 3.98199
upperback 11.3768 5.28356 2.47927
thorax -8.61355 1.28756 -1.16249
lowerneck -21.4675 30.1278 -4.7394
upperneck -0.0773928 53.4746 -4.70341
head 34.954 -52.2551 142.33
rclavicle 2.8625e-014 1.08338e-014
rhumerus 8.13901 -8.07231 -50.869
rradius 74.3162
rwrist -14.8282
rhand -33.2654 2.59829
rfingers 7.12502
rthumb -6.47043 -27.2829
lclavicle 2.8625e-014 1.08338e-014
lhumerus -37.8667 10.5448 76.7839
lradius 124.823
lwrist 3.59933
lhand -29.0496 1.42701
lfingers 7.12502
lthumb -2.39962 31.3933
rfemur -89.682 -20.1289 10.3792
rtibia 112.777
rfoot -34.4709 -1.9693
rtoes -41.4603
lfemur -66.7583 35.9787 13.5889
ltibia 81.8471
lfoot -20.8049 -14.7442
ltoes -29.8122
116
root 5.74446 11.4469 -19.3772 29.6359 -82.4998 -6.77411
lowerback 61.1431 4.53802 4.04871
upperback 11.4376 5.39204 2.61653
thorax -8.55084 1.31812 -1.08416
lowerneck -21.2212 30.4215 -4.37503
upperneck -0.0357525 53.442 -4.5585
head 34.9193 -52.2528 142.332
rclavicle -2.38542e-014 5.76476e-015
rhumerus 7.32942 -8.44231 -50.8964
rradius 74.4706
rwrist -15.5441
rhand -33.1294 2.44849
rfingers 7.12502
rthumb -6.33912 -27.4367
lclavicle -2.38542e-014 5.76476e-015
lhumerus -37.8514 10.4054 76.6449
lradius 125.039
lwrist 3.98673
lhand -29.4079 1.53387
lfingers 7.12502
lthumb -2.74565 31.4959
rfemur -89.3058 -20.6332 9.58315
rtibia 112.708
rfoot -34.3326 -1.64874
rtoes -41.8404
lfemur -68.1214 36.9909 13.1146
ltibia 83.9241
lfoot -21.9716 -15.5876
ltoes -29.2535
117
root 5.75833 11.3795 -19.1478 32.9032 -82.3977 -10.2182
lowerback 61.0701 4.63474 4.0591
upperback 11.5057 5.49753 2.73111
thorax -8.48109 1.35029 -1.00648
lowerneck -20.9681 30.7214 -3.99479
upperneck 0.0104985 53.4192 -4.4075
head 34.8654 -52.213 142.352
rclavicle -6.36111e-015 -2.28602e-015
rhumerus 6.43964 -8.82329 -50.9109
rradius 74.6163
rwrist -16.1751
rhand -32.9038 2.28966
rfingers 7.12502
rthumb -6.12132 -27.6019
lclavicle -6.36111e-015 -2.28602e-015
lhumerus -37.8231 10.2185 76.4949
lradius 125.274
lwrist 4.1969
lhand -29.6286 1.53925
lfingers 7.12502
lthumb -2.9588 31.4985
rfemur -88.8614 -21.0536 8.68605
rtibia 112.542
rfoot -34.1402 -1.38138
rtoes -42.1998
lfemur -69.405 37.9117 12.6482
ltibia 85.9394
lfoot -23.0485 -16.46
ltoes -28.9266
118
root 5.77145 11.3194 -18.9158 35.7904 -82.3328 -13.2661
lowerback 60.96 4.76978 4.01312
upperback 11.5789 5.60985 2.82435
thorax -8.40694 1.38805 -0.932102
lowerneck -20.7114 31.0199 -3.60613
upperneck 0.0622684 53.4073 -4.25178
head 34.7839 -52.1248 142.399
rclavicle 4.6118e-014 -2.69353e-014
rhumerus 5.46669 -9.23743 -50.904
rradius 74.7521
rwrist -16.7308
rhand -32.5858 2.11343
rfingers 7.12502
rthumb -5.81434 -27.7868
lclavicle 4.6118e-014 -2.69353e-014
lhumerus -37.7813 9.95518 76.3703
lradius 125.541
lwrist 4.24439
lhand -29.7476 1.52099
lfingers 7.12502
lthumb -3.07373 31.4786
rfemur -88.3533 -21.4002 7.70013
rtibia 112.269
rfoot -33.8956 -1.15167
rtoes -42.5253
lfemur -70.6123 38.7553 12.1468
ltibia 87.8897
lfoot -24.1064 -17.2961
ltoes -28.785
119
root 5.78405 11.2676 -18.681 38.378 -82.3167 -15.9852
lowerback 60.8156 4.89734 3.89424
upperback 11.6608 5.66425 2.87537
thorax -8.32386 1.40398 -0.848324
lowerneck -20.4666 31.3625 -3.24212
upperneck 0.120335 53.5479 -4.12259
head 34.6787 -51.9176 142.495
rclavicle -1.59028e-015 -1.05356e-014
rhumerus 4.52991 -9.60141 -50.9291
rradius 74.8642
rwrist -17.2236
rhand -32.174 1.90512
rfingers 7.12502
rthumb -5.41673 -28.0056
lclavicle -1.59028e-015 -1.05356e-014
lhumerus -37.7602 9.73597 76.2555
lradius 125.872
lwrist 4.18481
lhand -29.8287 1.56941
lfingers 7.12502
lthumb -3.15201 31.5259
rfemur -87.797 -21.6588 6.63414
rtibia 111.88
rfoot -33.5877 -0.978897
rtoes -42.8141
lfemur -71.767 39.5364 11.5664
ltibia 89.772
lfoot -25.1497 -18.0786
ltoes -28.6253
120
root 5.7961 11.2247 -18.4434 40.8602 -82.3638 -18.573
lowerback 60.6349 5.09269 3.71745
upperback 11.747 5.76017 2.91887
thorax -8.23826 1.43925 -0.766822
lowerneck -20.2144 31.6824 -2.8763
upperneck 0.182097 53.6598 -3.98524
head 34.5451 -51.6912 142.617
rclavicle -3.33958e-014 -1.15295e-014
rhumerus 3.5017 -10.0325 -50.902
rradius 74.9705
rwrist -17.6768
rhand -31.683 1.64848
rfingers 7.12502
rthumb -4.94264 -28.2739
lclavicle -3.33958e-014 -1.15295e-014
lhumerus -37.7261 9.41145 76.2225
lradius 126.249
lwrist 4.05933
lhand -29.8399 1.66849
lfingers 7.12502
lthumb -3.16285 31.6248
rfemur -87.1959 -21.8016 5.50657
rtibia 111.37
rfoot -33.2105 -0.854516
rtoes -43.0438
lfemur -72.8522 40.2788 10.8993
ltibia 91.5856
lfoot -26.1625 -18.785
ltoes -28.3649
